<svg xmlns="http://www.w3.org/2000/svg" width="283.325" height="253.42" viewBox="0 0 283.325 253.42">
  <g id="Group_7" data-name="Group 7" transform="translate(0 -0.01)">
    <path id="Path_61" data-name="Path 61" d="M879.65,213.759c10.124,14.771,7.884,33.907,7.884,33.907s-18.655-4.814-28.779-19.585-7.884-33.907-7.884-33.907S869.526,198.988,879.65,213.759Z" transform="translate(-614.401 -164.388)" fill="#2f2e41"/>
    <path id="Path_62" data-name="Path 62" d="M907.807,198.9c1.185,17.869,14.783,31.516,14.783,31.516s11.678-15.323,10.493-33.192S918.3,165.706,918.3,165.706,906.622,181.03,907.807,198.9Z" transform="translate(-649.842 -146.707)" fill="#33658a"/>
    <path id="Path_63" data-name="Path 63" d="M581.134,115.958,718.59,185.065a6.5,6.5,0,0,1,3.565,6.245l-7.986,118.294a3.221,3.221,0,0,1-4.666,2.657l-140.59-71.75,7.218-121.67a3.457,3.457,0,0,1,5-2.884Z" transform="translate(-439.408 -115.58)" fill="#d0cde1"/>
    <path id="Path_64" data-name="Path 64" d="M585.8,122.335l134.079,67.41a6.34,6.34,0,0,1,3.478,6.092l-7.79,115.388a3.141,3.141,0,0,1-4.551,2.592L573.88,243.83l7.04-118.682a3.372,3.372,0,0,1,4.88-2.813Z" transform="translate(-442.493 -119.546)" fill="#3f3d56"/>
    <path id="Path_65" data-name="Path 65" d="M603.137,146.02l121.539,61.105a5.747,5.747,0,0,1,3.153,5.522l-7.061,104.6a2.848,2.848,0,0,1-4.126,2.35l-124.31-63.442,6.382-107.582a3.057,3.057,0,0,1,4.424-2.55Z" transform="translate(-453.953 -134.277)" fill="#fff"/>
    <path id="Path_66" data-name="Path 66" d="M286.419,501.82,424.05,571.133a9.164,9.164,0,0,0,8.255-.011L534.12,519.437c1.194-1.194,1.027-2.963.645-4.291a9.557,9.557,0,0,0-.753-1.855l-13.874-7.3-116.653-58.2-6.97-3.7a12.9,12.9,0,0,0-11.987-.048l-98.153,50.986a3.811,3.811,0,0,0,.043,6.792Z" transform="translate(-262.644 -318.68)" fill="#d0cde1"/>
    <path id="Path_67" data-name="Path 67" d="M286.416,592.325l137.631,69.313a9.164,9.164,0,0,0,8.255-.011l101.815-51.685c1.194-1.194,1.027-2.963.645-4.291L433.251,658.414a8.855,8.855,0,0,1-8.032.069L284.361,588.308A3.8,3.8,0,0,0,286.416,592.325Z" transform="translate(-262.641 -409.185)" opacity="0.1"/>
    <path id="Path_68" data-name="Path 68" d="M508.119,615.7l-44.572-22.524a6.263,6.263,0,0,0-5.776.066l-25.856,13.814a1.85,1.85,0,0,0,.039,3.283L477.4,633.252a5.148,5.148,0,0,0,4.845-.111L508.2,618.515a1.592,1.592,0,0,0-.084-2.819Z" transform="translate(-353.711 -411.788)" opacity="0.1"/>
    <path id="Path_69" data-name="Path 69" d="M602.963,527.647,555,553.127a3.9,3.9,0,0,1-3.591.036L415.891,484.632a2.3,2.3,0,0,1,.018-4.122l46.838-23.182a5.079,5.079,0,0,1,4.538.016l135.657,68.351a1.1,1.1,0,0,1,.021,1.953Z" transform="translate(-343.58 -327.506)" opacity="0.1"/>
    <rect id="Rectangle_25" data-name="Rectangle 25" width="0.538" height="49.302" transform="matrix(0.447, -0.894, 0.894, 0.447, 182.623, 73.546)" fill="#33658a"/>
    <rect id="Rectangle_26" data-name="Rectangle 26" width="0.537" height="49.545" transform="translate(182.615 80.009) rotate(-62.909)" fill="#33658a"/>
    <rect id="Rectangle_27" data-name="Rectangle 27" width="0.538" height="28.38" transform="matrix(0.455, -0.89, 0.89, 0.455, 190.691, 92.364)" fill="#33658a"/>
    <path id="Path_70" data-name="Path 70" d="M339.321,425.838s-10.753-4.686-15.8.264S337.04,429.422,339.321,425.838Z" transform="translate(-286.454 -307.029)" fill="#3f3d56"/>
    <path id="Path_71" data-name="Path 71" d="M314.229,359.964c3.614-6.106,10.763-6.391,10.763-6.391s6.967-.891,11.436,8.409c4.166,8.668,9.915,17.037.926,19.066l-1.624-5.054-1.006,5.43a35.163,35.163,0,0,1-3.846.066c-9.627-.311-18.794.091-18.5-3.364C312.771,373.535,310.752,365.839,314.229,359.964Z" transform="translate(-279.93 -263.377)" fill="#2f2e41"/>
    <path id="Path_72" data-name="Path 72" d="M291.477,662.62s4.562,8.472,7.495,8.472,2.607,5.54,1.955,6.843a7.74,7.74,0,0,0,.326,8.472,5.2,5.2,0,0,1,.15,4.716,4.126,4.126,0,0,1-7.979-1.628q0-.077.008-.155c.326-5.214-2.281-13.36-4.888-15.315s-4.888-7.169-4.888-7.169Z" transform="translate(-262.235 -455.34)" fill="#ffb8b8"/>
    <path id="Path_73" data-name="Path 73" d="M369.783,657.46s-4.562,8.472-7.495,8.472-2.607,5.54-1.955,6.843a7.74,7.74,0,0,1-.326,8.472,5.2,5.2,0,0,0-.15,4.716,4.126,4.126,0,0,0,7.979-1.628q0-.077-.008-.155c-.326-5.214,2.281-13.36,4.888-15.315S377.6,661.7,377.6,661.7Z" transform="translate(-309.259 -452.135)" fill="#ffb8b8"/>
    <path id="Path_74" data-name="Path 74" d="M284.061,541.5l1.955,4.236s28.676,9.45,26.069,20.529-15.315,28.35-17.271,27.7-12.383-2.607-12.708-8.147S289.6,570.5,289.6,570.5l-10.753-9.776L263.2,560.4l-13.354,10.1s14.012,12.383,7.821,17.271-15.315,8.147-16.619,6.191S225.081,563.01,227.362,560.4s25.417-12.382,25.417-12.382l6.191-8.8,24.114-1.3Z" transform="translate(-227.121 -377.888)" fill="#2f2e41"/>
    <path id="Path_75" data-name="Path 75" d="M338.95,401.44s-1.629,10.753,1.629,12.057-6.517,6.843-6.517,6.843h-5.54l-3.584-7.495s3.259-5.865,1.3-11.405S338.95,401.44,338.95,401.44Z" transform="translate(-287.875 -291.592)" fill="#ffb8b8"/>
    <path id="Path_76" data-name="Path 76" d="M338.95,401.44s-1.629,10.753,1.629,12.057-6.517,6.843-6.517,6.843h-5.54l-3.584-7.495s3.259-5.865,1.3-11.405S338.95,401.44,338.95,401.44Z" transform="translate(-287.875 -291.592)" opacity="0.1"/>
    <path id="Path_77" data-name="Path 77" d="M333.752,429.557s-3.584,3.91-4.236,4.562-3.584,4.236-9.776-.978-6.843.978-6.843.978v39.1s5.214-2.281,9.45,0,13.034-.652,13.034-.652l1.629-40.407Z" transform="translate(-280.397 -310.585)" fill="#d0cde1"/>
    <path id="Path_78" data-name="Path 78" d="M354.761,428.607a7.5,7.5,0,0,1,5.652,0c2.607,1.3,11.731,7.821,11.079,10.753s-9.124,23.462-3.259,33.238,6.843,12.383,6.843,12.383l-14.338-7.495s-11.079-6.843-10.1-11.079S354.761,428.607,354.761,428.607Z" transform="translate(-303.799 -309.635)" fill="#3f3d56"/>
    <path id="Path_79" data-name="Path 79" d="M295.224,429.557s-6.839.652-7.165,1.3-10.265,3.422-9.613,6.354,9.613,29.164,5.7,34.052S273.721,483,276,483.65s6.191-.978,10.1,0,13.034-7.169,12.057-15.967S298.153,431.838,295.224,429.557Z" transform="translate(-257.188 -310.585)" fill="#3f3d56"/>
    <path id="Path_80" data-name="Path 80" d="M359.789,591.148v3.259s1.629,7.495-3.584,7.169-1.955-9.124-1.955-9.124l.326-2.933Z" transform="translate(-305.456 -409.937)" fill="#ffb8b8"/>
    <path id="Path_81" data-name="Path 81" d="M321.669,594.679s3.584,7.495,0,8.146-6.191-4.236-6.191-5.54S321.669,594.679,321.669,594.679Z" transform="translate(-281.999 -413.142)" fill="#ffb8b8"/>
    <ellipse id="Ellipse_20" data-name="Ellipse 20" cx="0.652" cy="1.303" rx="0.652" ry="1.303" transform="translate(34.293 104.146)" fill="#ffb8b8"/>
    <ellipse id="Ellipse_21" data-name="Ellipse 21" cx="0.652" cy="1.303" rx="0.652" ry="1.303" transform="translate(53.518 104.146)" fill="#ffb8b8"/>
    <path id="Path_82" data-name="Path 82" d="M291.462,440.737s-8.146,0-7.821,3.259S294.72,503.3,294.72,503.3s4.562-4.236,8.472-3.259Z" transform="translate(-262.22 -317.528)" fill="#3f3d56"/>
    <path id="Path_83" data-name="Path 83" d="M366.352,443.317s8.147,1.629,8.147,6.517-11.731,51.812-13.36,51.812-7.821-.978-7.821-2.607S366.352,443.317,366.352,443.317Z" transform="translate(-305.502 -319.131)" fill="#3f3d56"/>
    <path id="Path_84" data-name="Path 84" d="M370.97,468.687l-7.332,28.673S367.059,472.271,370.97,468.687Z" transform="translate(-311.912 -334.888)" opacity="0.2"/>
    <path id="Path_85" data-name="Path 85" d="M307.723,458.054l7.415,37.488S312.768,460.216,307.723,458.054Z" transform="translate(-277.183 -328.284)" opacity="0.2"/>
    <circle id="Ellipse_22" data-name="Ellipse 22" cx="9.45" cy="9.45" r="9.45" transform="translate(35.108 96.162)" fill="#ffb8b8"/>
    <path id="Path_86" data-name="Path 86" d="M94.186,247.28l7.063-3.7L111,245.093l2.018,8.913L108,253.814l-1.4-3.275v3.221l-2.318-.089-1.345-5.214-.841,5.55-8.241-.168Z" transform="translate(-58.29 -151.281)" fill="#2f2e41"/>
    <path id="Path_87" data-name="Path 87" d="M367.9,98.892l-3.9,9.264,32.876,17.257L407.952,93" transform="translate(-226.08 -57.756)" fill="#f2f2f2"/>
    <path id="Path_88" data-name="Path 88" d="M394.876,80.6,409.4,46.426,376.019,30,362,63.343Z" transform="translate(-224.838 -18.627)" fill="#33658a"/>
    <rect id="Rectangle_28" data-name="Rectangle 28" width="0.538" height="28.38" transform="matrix(0.455, -0.89, 0.89, 0.455, 150.148, 24.92)" fill="#fff"/>
    <rect id="Rectangle_29" data-name="Rectangle 29" width="0.538" height="28.38" transform="matrix(0.455, -0.89, 0.89, 0.455, 148.254, 29.467)" fill="#fff"/>
  </g>
</svg>
